<svg id="Layer_1" data-name="Layer 1" xmlns="http://www.w3.org/2000/svg" viewBox="0 0 879.49 192.65"><defs><style>.cls-1{font-size:52.94px;font-family:FuturaPT-Light, Futura PT;font-weight:300;}.cls-2{letter-spacing:-0.06em;}.cls-3{letter-spacing:-0.03em;}.cls-4,.cls-7{font-size:141.19px;fill:#231f20;}.cls-4{font-family:FuturaPT-Medium, Futura PT;font-weight:500;}.cls-5{letter-spacing:0.03em;}.cls-6{letter-spacing:-0.17em;}.cls-7{font-family:Futura-Bold, Futura;font-weight:700;}.cls-8{fill:#8f6f4d;}</style></defs><text class="cls-1" transform="translate(0 146.59)"><tspan class="cls-2">T</tspan><tspan class="cls-3" x="18.95" y="0">h</tspan><tspan x="40.71" y="0">e</tspan></text><text class="cls-4" transform="translate(66.3 145.43)">Lea<tspan class="cls-5" x="198.5" y="0">f</tspan><tspan x="241" y="0">y</tspan><tspan class="cls-6" x="309.05" y="0">	</tspan></text><text class="cls-7" transform="translate(376.69 144.08)">Bean</text><path class="cls-8" d="M863.06,103.12c-26.35-10.27-60.15,13.27-75.49,52.59s-6.42,79.54,19.93,89.82,60.14-13.27,75.48-52.59S889.4,113.4,863.06,103.12Zm-3,52c-8.64,12.48-14.83,15.51-26.66,27.4-24.83,25-18.74,64.22-21.08,64.13-2.52-.09-14.71-45.89,9.41-73.94,8.06-9.38,15.18-10,24.32-22,17.2-22.58,10.88-48.19,14.1-48.06C864,102.74,875.41,133,860.1,155.11Z" transform="translate(-11 -100.71)"/></svg>